<?xml version="1.0" standalone="no"?>
<!DOCTYPE svg PUBLIC "-//W3C//DTD SVG 20010904//EN"
 "http://www.w3.org/TR/2001/REC-SVG-20010904/DTD/svg10.dtd">
<svg version="1.0" xmlns="http://www.w3.org/2000/svg"
 width="414.000000pt" height="175.000000pt" viewBox="0 0 414.000000 175.000000"
 preserveAspectRatio="xMidYMid meet">
<metadata>
Created by potrace 1.15, written by Peter Selinger 2001-2017
</metadata>
<g transform="translate(0.000000,175.000000) scale(0.100000,-0.100000)"
fill="#000000" stroke="none">
<path d="M1675 1355 c-14 -13 -25 -31 -25 -39 0 -11 -10 -15 -39 -13 -43 1
-77 -21 -92 -60 -6 -18 -16 -22 -43 -21 -48 2 -84 -24 -91 -66 -4 -19 -5 -82
-3 -140 4 -126 18 -149 89 -150 29 -1 44 -6 47 -16 11 -37 45 -60 89 -60 32 0
43 -4 43 -15 0 -9 11 -27 25 -40 33 -34 87 -34 120 0 23 22 25 31 25 125 0 93
-1 100 -20 100 -19 0 -20 -7 -20 -93 0 -98 -7 -117 -45 -117 -43 0 -45 10 -45
295 0 286 1 295 46 295 35 0 43 -21 46 -121 l3 -94 195 0 c167 0 195 2 195 15
0 13 -28 16 -175 20 l-175 5 -5 89 c-5 77 -9 91 -29 107 -33 27 -86 25 -116
-6z m-35 -114 c6 -12 10 -95 10 -200 0 -168 -1 -182 -20 -201 -11 -11 -24 -20
-30 -20 -5 0 -19 9 -30 20 -19 19 -20 33 -20 201 0 105 4 188 10 200 7 12 21
19 40 19 19 0 33 -7 40 -19z m-129 -88 c13 -36 11 -194 -4 -223 -15 -30 -48
-37 -71 -15 -13 13 -16 39 -16 130 0 104 2 115 21 128 27 19 58 10 70 -20z"/>
<path d="M2275 1355 c-23 -23 -25 -31 -25 -130 0 -87 3 -105 15 -105 12 0 15
16 15 88 0 63 4 94 16 110 18 26 46 28 68 6 14 -13 16 -53 16 -283 0 -194 -3
-270 -12 -279 -16 -16 -65 -15 -74 0 -4 7 -10 55 -13 108 l-6 95 -190 0 c-172
0 -190 -2 -193 -17 -3 -16 12 -18 175 -20 l178 -3 3 -87 c3 -80 5 -89 29 -108
14 -11 38 -20 53 -20 31 0 76 31 85 60 5 16 15 20 46 20 43 0 89 34 89 65 0
13 6 15 29 10 33 -7 85 15 95 40 3 9 6 74 6 144 0 120 -1 129 -23 149 -16 15
-36 22 -65 22 -30 0 -42 4 -42 14 0 8 -10 27 -23 42 -18 21 -32 27 -65 27 -23
0 -42 3 -42 8 0 4 -12 21 -26 38 -33 40 -83 43 -119 6z m223 -107 c9 -9 12
-69 12 -210 0 -185 -1 -198 -19 -208 -27 -14 -37 -13 -55 6 -13 13 -16 46 -16
208 0 202 3 216 45 216 12 0 26 -5 33 -12z m142 -94 c14 -37 12 -194 -3 -224
-16 -31 -43 -37 -68 -14 -17 15 -19 31 -19 129 0 121 5 135 52 135 21 0 31 -6
38 -26z"/>
<path d="M1103 434 c-56 -28 -78 -116 -48 -192 27 -66 95 -89 170 -58 34 15
35 17 35 70 l0 56 -51 0 c-54 0 -65 -19 -18 -30 27 -7 37 -34 19 -55 -17 -21
-74 -19 -92 3 -34 37 -34 134 -2 167 22 22 71 19 86 -5 7 -11 23 -20 35 -20
19 0 21 3 14 23 -8 24 -64 57 -96 57 -11 0 -34 -8 -52 -16z"/>
<path d="M2230 443 c-33 -12 -59 -47 -70 -94 -28 -116 60 -211 155 -166 86 41
87 210 0 251 -34 16 -58 19 -85 9z m85 -57 c40 -60 22 -159 -31 -172 -53 -13
-87 33 -81 109 2 27 12 56 22 67 25 28 71 26 90 -4z"/>
<path d="M1302 433 c2 -5 20 -41 41 -80 30 -58 37 -83 37 -128 0 -52 1 -55 25
-55 24 0 25 3 25 55 0 45 7 70 37 128 21 39 39 75 41 80 2 4 -7 7 -20 7 -18 0
-27 -10 -41 -44 -10 -24 -24 -52 -32 -62 -13 -18 -16 -14 -42 44 -23 51 -32
62 -51 62 -13 0 -22 -3 -20 -7z"/>
<path d="M1560 306 c0 -131 1 -136 21 -136 19 0 20 5 17 100 -2 64 1 99 7 97
6 -2 26 -47 45 -100 19 -53 40 -97 46 -97 13 0 14 2 51 105 14 39 32 77 40 85
13 13 14 3 7 -87 l-7 -103 27 0 26 0 0 135 0 135 -34 0 c-34 0 -34 0 -67 -95
-18 -53 -37 -94 -42 -92 -6 2 -25 43 -42 93 -31 84 -34 89 -64 92 l-31 3 0
-135z"/>
<path d="M1910 305 l0 -135 25 0 c23 0 25 3 25 50 0 48 1 50 28 50 42 0 93 17
108 37 7 10 14 35 14 55 0 57 -34 78 -126 78 l-74 0 0 -135z"/>
<path d="M2550 305 c0 -128 1 -135 20 -135 19 0 20 7 20 90 0 51 4 90 10 90 5
0 33 -40 62 -90 42 -70 58 -90 76 -90 22 0 22 2 22 135 0 128 -1 135 -20 135
-18 0 -20 -7 -20 -86 0 -63 -3 -85 -12 -82 -7 3 -35 41 -63 86 -38 63 -55 82
-72 82 -23 0 -23 -2 -23 -135z"/>
<path d="M2800 426 c0 -10 14 -16 43 -18 l42 -3 3 -117 c2 -109 4 -118 22
-118 18 0 20 9 22 118 l3 117 43 3 c28 2 42 8 42 18 0 11 -21 14 -110 14 -89
0 -110 -3 -110 -14z"/>
</g>
</svg>
